<svg width="114" height="114" viewBox="0 0 114 114" fill="none" xmlns="http://www.w3.org/2000/svg">
<mask id="path-1-inside-1_4_64" fill="white">
<path fill-rule="evenodd" clip-rule="evenodd" d="M57.4999 0H85.7499H114V28.25V56.4999V84.7499H85.7499H57.4999V56.4999H85.7499V28.25H57.4999V0Z"/>
</mask>
<path d="M57.4999 0V-0.999999H56.4999V0H57.4999ZM114 0H115V-0.999999H114V0ZM114 84.7499V85.7499H115V84.7499H114ZM57.4999 84.7499H56.4999V85.7499H57.4999V84.7499ZM57.4999 56.4999V55.4999H56.4999V56.4999H57.4999ZM85.7499 56.4999V57.4999H86.7499V56.4999H85.7499ZM85.7499 28.25H86.7499V27.25H85.7499V28.25ZM57.4999 28.25H56.4999V29.25H57.4999V28.25ZM85.7499 -0.999999H57.4999V0.999999H85.7499V-0.999999ZM114 -0.999999H85.7499V0.999999H114V-0.999999ZM115 28.25V0H113V28.25H115ZM115 56.4999V28.25H113V56.4999H115ZM115 84.7499V56.4999H113V84.7499H115ZM85.7499 85.7499H114V83.7499H85.7499V85.7499ZM85.7499 83.7499H57.4999V85.7499H85.7499V83.7499ZM58.4999 84.7499V56.4999H56.4999V84.7499H58.4999ZM57.4999 57.4999H85.7499V55.4999H57.4999V57.4999ZM84.7499 28.25V56.4999H86.7499V28.25H84.7499ZM57.4999 29.25H85.7499V27.25H57.4999V29.25ZM56.4999 0V28.25H58.4999V0H56.4999Z" fill="#C778DD" mask="url(#path-1-inside-1_4_64)"/>
<mask id="path-3-outside-2_4_64" maskUnits="userSpaceOnUse" x="0" y="27.2501" width="58.9999" height="86.9999" fill="black">
<rect fill="white" y="27.2501" width="58.9999" height="86.9999"/>
<path fill-rule="evenodd" clip-rule="evenodd" d="M0.999999 28.2501H29.25H57.4999V56.5001H29.25V84.75H57.4999V113H29.25H0.999999V84.75V56.5001V28.2501Z"/>
</mask>
<path d="M0.999999 28.2501V27.2501H0V28.2501H0.999999ZM57.4999 28.2501H58.4999V27.2501H57.4999V28.2501ZM57.4999 56.5001V57.5001H58.4999V56.5001H57.4999ZM29.25 56.5001V55.5001H28.25V56.5001H29.25ZM29.25 84.75H28.25V85.75H29.25V84.75ZM57.4999 84.75H58.4999V83.75H57.4999V84.75ZM57.4999 113V114H58.4999V113H57.4999ZM0.999999 113H0V114H0.999999V113ZM29.25 27.2501H0.999999V29.2501H29.25V27.2501ZM57.4999 27.2501H29.25V29.2501H57.4999V27.2501ZM58.4999 56.5001V28.2501H56.4999V56.5001H58.4999ZM29.25 57.5001H57.4999V55.5001H29.25V57.5001ZM30.25 84.75V56.5001H28.25V84.75H30.25ZM29.25 85.75H57.4999V83.75H29.25V85.75ZM56.4999 84.75V113H58.4999V84.75H56.4999ZM57.4999 112H29.25V114H57.4999V112ZM0.999999 114H29.25V112H0.999999V114ZM0 84.75V113H2V84.75H0ZM0 56.5001V84.75H2V56.5001H0ZM0 28.2501V56.5001H2V28.2501H0Z" fill="#C778DD" mask="url(#path-3-outside-2_4_64)"/>
</svg>
